<svg height="640pt" viewBox="-20 -20 640 640" width="640pt" xmlns="http://www.w3.org/2000/svg"><path d="m560 110c-22.0625 0-40 17.9375-40 40s17.9375 40 40 40 40-17.9375 40-40-17.9375-40-40-40zm0 0"/><path d="m410 90c16.539062 0 30-13.460938 30-30s-13.460938-30-30-30-30 13.460938-30 30 13.460938 30 30 30zm0 0"/><path d="m530 60c16.539062 0 30-13.460938 30-30s-13.460938-30-30-30-30 13.460938-30 30 13.460938 30 30 30zm0 0"/><path d="m90 460c0 5.523438-4.476562 10-10 10s-10-4.476562-10-10 4.476562-10 10-10 10 4.476562 10 10zm0 0"/><path d="m110 550c0 5.523438-4.476562 10-10 10s-10-4.476562-10-10 4.476562-10 10-10 10 4.476562 10 10zm0 0"/><path d="m200 460c0 5.523438-4.476562 10-10 10s-10-4.476562-10-10 4.476562-10 10-10 10 4.476562 10 10zm0 0"/><path d="m494.648438 268.78125-163.4375-163.421875c-3.414063-3.410156-8.109376-5.359375-12.929688-5.359375-10.082031 0-18.28125 8.199219-18.28125 18.289062 0 4.878907 1.898438 9.480469 5.351562 12.929688l121.71875 121.710938-14.140624 14.140624-102.929688-102.921874-15.859375 15.851562 42.929687 42.929688-14.140624 14.140624-42.929688-42.929687-15.859375 15.859375 22.929687 22.929688-14.140624 14.140624-22.929688-22.929687-15.859375 15.859375 42.929687 42.929688-14.140624 14.140624-42.929688-42.929687-15.859375 15.859375 22.929687 22.929688-14.140624 14.140624-22.929688-22.929687-15.859375 15.859375 42.929687 42.929688-14.140624 14.140624-42.929688-42.929687-15.859375 15.859375 22.929687 22.929688-14.140624 14.140624-22.929688-22.929687-35.859375 35.859375h251.71875l104.140625-104.140625 18.789062 18.78125c3.414063 3.410156 8.109376 5.359375 12.929688 5.359375 10.082031 0 18.28125-8.199219 18.28125-18.289062 0-4.878907-1.898438-9.46875-5.351562-12.929688zm0 0"/><path d="m26.058594 448.082031c-16.800782 16.804688-26.058594 39.160157-26.058594 62.929688 0 49.066406 39.921875 88.988281 88.988281 88.988281 23.769531 0 46.125-9.257812 62.929688-26.058594l173.941406-173.941406h-251.71875zm163.941406-18.082031c16.539062 0 30 13.460938 30 30s-13.460938 30-30 30-30-13.460938-30-30 13.460938-30 30-30zm-60 120c0 16.539062-13.460938 30-30 30s-30-13.460938-30-30 13.460938-30 30-30 30 13.460938 30 30zm-20-90c0 16.539062-13.460938 30-30 30s-30-13.460938-30-30 13.460938-30 30-30 30 13.460938 30 30zm0 0"/></svg>