<svg id="Capa_1" enable-background="new 0 0 512 512" height="512" viewBox="0 0 512 512" width="512" xmlns="http://www.w3.org/2000/svg"><g><path d="m392.22 425.771h-272.44c-17.069 0-30.905-13.837-30.905-30.905v-363.961c0-17.068 13.837-30.905 30.905-30.905h272.44c17.069 0 30.905 13.837 30.905 30.905v363.96c0 17.069-13.837 30.906-30.905 30.906z" fill="#f7f6f7"/><path d="m392.22 0h-30.905c17.069 0 30.905 13.837 30.905 30.905v363.96c0 17.069-13.837 30.905-30.905 30.905h30.905c17.069 0 30.905-13.837 30.905-30.905v-363.96c0-17.068-13.837-30.905-30.905-30.905z" fill="#e2dfe3"/><path d="m438.857 512h-365.714c-17.069 0-30.905-13.837-30.905-30.905v-249.304c0-17.069 13.837-30.905 30.905-30.905h119.959c10.333 0 19.983 5.164 25.715 13.762l12.556 18.834c5.732 8.598 15.382 13.762 25.715 13.762h181.77c17.069 0 30.905 13.837 30.905 30.905v202.946c0 17.068-13.837 30.905-30.906 30.905z" fill="#ffe07d"/><g><path d="m438.857 247.243h-30.905c17.069 0 30.905 13.837 30.905 30.905v202.946c0 17.068-13.837 30.905-30.905 30.905h30.905c17.069 0 30.905-13.837 30.905-30.905v-202.945c.001-17.069-13.836-30.906-30.905-30.906z" fill="#ffd064"/></g><g><circle cx="256" cy="379.622" fill="#e5979d" r="91.171"/><path d="m256 288.451c-5.266 0-10.428.455-15.453 1.316 42.937 7.362 75.718 44.85 75.718 89.855s-32.781 82.493-75.718 89.855c5.025.861 10.186 1.316 15.453 1.316 50.272 0 91.171-40.899 91.171-91.171s-40.899-91.171-91.171-91.171z" fill="#e17f85"/><path d="m310.085 364.169h-35.541c-1.707 0-3.091-1.384-3.091-3.091v-35.541c0-3.414-2.767-6.181-6.181-6.181h-18.543c-3.414 0-6.181 2.767-6.181 6.181v35.541c0 1.707-1.384 3.091-3.091 3.091h-35.541c-3.414 0-6.181 2.767-6.181 6.181v18.543c0 3.414 2.767 6.181 6.181 6.181h35.541c1.707 0 3.091 1.384 3.091 3.091v35.541c0 3.414 2.767 6.181 6.181 6.181h18.543c3.414 0 6.181-2.767 6.181-6.181v-35.541c0-1.707 1.384-3.091 3.091-3.091h35.541c3.414 0 6.181-2.767 6.181-6.181v-18.543c0-3.414-2.768-6.181-6.181-6.181z" fill="#fff"/></g><path d="m352.322 85.505h-192.644c-5.69 0-10.302-4.612-10.302-10.302v-18.543c0-5.69 4.612-10.302 10.302-10.302h192.644c5.69 0 10.302 4.612 10.302 10.302v18.543c0 5.69-4.613 10.302-10.302 10.302z" fill="#c7c2c9"/><g><path d="m362.624 139.59h-213.248c-4.267 0-7.726-3.459-7.726-7.726 0-4.268 3.459-7.726 7.726-7.726h213.247c4.267 0 7.726 3.459 7.726 7.726.001 4.267-3.458 7.726-7.725 7.726z" fill="#c7c2c9"/></g><g><path d="m362.624 170.495h-213.248c-4.267 0-7.726-3.459-7.726-7.726s3.459-7.726 7.726-7.726h213.247c4.267 0 7.726 3.459 7.726 7.726s-3.458 7.726-7.725 7.726z" fill="#c7c2c9"/></g></g></svg>