<svg height="512" viewBox="0 0 512 512" width="512" xmlns="http://www.w3.org/2000/svg"><g id="flat"><path d="m448 488h-384v-304l192-104 192 96z" fill="#eaeae8"/><path d="m416 216h-80a8 8 0 0 1 0-16h80a8 8 0 0 1 0 16z" fill="#cbcbcb"/><circle cx="216" cy="216" fill="#02a437" r="32"/><path d="m184 276v56a28 28 0 0 0 28 28h68l28.4 45.448a20.1 20.1 0 0 0 29.1 5.426 20.094 20.094 0 0 0 5.174-26.414l-30.52-50.866a28 28 0 0 0 -24.007-13.594h-48.147v-44a28 28 0 0 0 -28-28 28 28 0 0 0 -28 28z" fill="#02a437"/><path d="m305 400h-41a8 8 0 0 1 0-16h31z" fill="#027226"/><path d="m473.9 106.176-99.362 99.361-99.362-99.361a48.142 48.142 0 0 1 -14.1-34.039 48.138 48.138 0 0 1 48.14-48.137 48.141 48.141 0 0 1 34.038 14.1l31.285 31.285 31.285-31.285a48.142 48.142 0 0 1 34.039-14.1 48.137 48.137 0 0 1 48.137 48.137 48.142 48.142 0 0 1 -14.1 34.039z" fill="#e82f3e"/><path d="m405.347 104h-16v-16h-32v16h-16v32h16v16h32v-16h16z" fill="#ffb3b3"/><path d="m416 240v216h-320v-256l160.004-83.812-.004-36.188-192 104v304h384v-248z" fill="#cbcbcb"/><g fill="#027226"><path d="m252 396h-32.686l23.113-23.113a8 8 0 0 0 -11.315-11.313l-23.112 23.112v-32.686a8 8 0 0 0 -16 0v32.686l-23.112-23.112a8 8 0 0 0 -11.315 11.313l23.113 23.113h-32.686a8 8 0 0 0 0 16h32.686l-23.113 23.113c-3.124 3.124-3.124 1.763 0 4.887 1.563 1.562 3.61 8.77 5.657 8.77a7.979 7.979 0 0 0 5.658-2.344l23.112-23.112v32.686c0 4.418 3.582 0 8 0s8 4.418 8 0v-32.686l23.112 23.112a7.979 7.979 0 0 0 5.658 2.344c2.047 0 1.668-.782 3.23-2.344 3.124-3.124 5.551-8.189 2.427-11.313l-23.113-23.113h32.686a8 8 0 0 0 0-16z"/><path d="m200 352a48 48 0 1 0 48 48 48.054 48.054 0 0 0 -48-48zm0 112a64 64 0 1 1 64-64 64.072 64.072 0 0 1 -64 64z"/><circle cx="328" cy="432" r="24"/></g></g></svg>