<svg height="512" viewBox="0 0 512 512" width="512" xmlns="http://www.w3.org/2000/svg"><g><g><g><rect fill="#ab2300" height="32" rx="16" width="128" x="168" y="128"/><path d="m264 128h-64v-60a20 20 0 0 1 20-20h24a20 20 0 0 1 20 20z" fill="#d80027"/><path d="m264 160v200l-16 32v48a16 16 0 0 1 -32 0v-48l-16-32v-200z" fill="#d8d7da"/></g><rect fill="#898890" height="32" rx="16" width="144" x="304" y="16"/><path d="m328 48h96v296h-96z" fill="#d8d7da"/><path d="m424 344v112a40 40 0 0 1 -40 40h-16a40 40 0 0 1 -40-40v-112z" fill="#d80027"/><path d="m128 168a32 32 0 0 1 -16 27.72v28.28h-32v-28.28a32 32 0 1 1 48-27.72z" fill="#d80027"/><path d="m112 416-16 24-16-24v-192h32z" fill="#e0e0e2"/></g><g><path d="m280 120h-8v-52a28.031 28.031 0 0 0 -28-28h-24a28.031 28.031 0 0 0 -28 28v52h-8a24 24 0 0 0 0 48h8v192a8.081 8.081 0 0 0 .84 3.58l15.16 30.31v46.11a24 24 0 0 0 48 0v-46.11l15.16-30.31a8.081 8.081 0 0 0 .84-3.58v-192h8a24 24 0 0 0 0-48zm-72-52a12.01 12.01 0 0 1 12-12h24a12.01 12.01 0 0 1 12 12v52h-48zm48 116h-16a8 8 0 0 0 0 16h16v16h-16a8 8 0 0 0 0 16h16v16h-16a8 8 0 0 0 0 16h16v16h-16a8 8 0 0 0 0 16h16v62.11l-15.16 30.31a8.081 8.081 0 0 0 -.84 3.58v48a8 8 0 0 1 -16 0v-48a8.081 8.081 0 0 0 -.84-3.58l-15.16-30.31v-190.11h48zm24-32h-96a8 8 0 0 1 0-16h96a8 8 0 0 1 0 16z"/><path d="m432 8h-112a24 24 0 0 0 0 48v400a48.051 48.051 0 0 0 48 48h16a48.051 48.051 0 0 0 48-48v-400a24 24 0 0 0 0-48zm-16 448a32.036 32.036 0 0 1 -32 32h-16a32.036 32.036 0 0 1 -32-32v-104h80zm0-120h-80v-280h80zm16-296h-112a8 8 0 0 1 0-16h112a8 8 0 0 1 0 16z"/><path d="m96 128a40 40 0 0 0 -24 72v216a8.066 8.066 0 0 0 1.34 4.44l14.66 21.98v13.58a8 8 0 0 0 16 0v-13.58l14.66-21.98a8.066 8.066 0 0 0 1.34-4.44v-216a40 40 0 0 0 -24-72zm8 285.58-8 12-8-12v-181.58h16zm3.99-224.79a8 8 0 0 0 -3.99 6.93v20.28h-16v-20.28a8 8 0 0 0 -3.99-6.93 24 24 0 1 1 23.98 0z"/></g></g></svg>