<svg height="512" viewBox="0 0 512 512" width="512" xmlns="http://www.w3.org/2000/svg" xmlns:xlink="http://www.w3.org/1999/xlink"><linearGradient id="a" gradientUnits="userSpaceOnUse" x1="-8.089" x2="492.85" y1="491.338" y2="-9.601" data-name="New Gradient Swatch 1"><stop offset="0" stop-color="#003f8a"/><stop offset=".518" stop-color="#00d7df"/><stop offset="1" stop-color="#006df0"/></linearGradient><linearGradient id="b" x1="10.633" x2="511.572" xlink:href="#a" y1="510.061" y2="9.122"/><linearGradient id="c" x1="78.286" x2="579.225" xlink:href="#a" y1="577.714" y2="76.775"/><linearGradient id="e" x1="46.286" x2="547.225" xlink:href="#a" y1="545.714" y2="44.775"/><linearGradient id="f" x1="14.286" x2="515.225" xlink:href="#a" y1="513.714" y2="12.775"/><linearGradient id="g" x1="-17.714" x2="483.225" xlink:href="#a" y1="481.714" y2="-19.225"/><linearGradient id="h" x1="174.286" x2="675.225" xlink:href="#a" y1="673.714" y2="172.775"/><linearGradient id="i" x1="142.286" x2="643.225" xlink:href="#a" y1="641.714" y2="140.775"/><linearGradient id="j" x1="110.286" x2="611.225" xlink:href="#a" y1="609.714" y2="108.775"/><g><path d="m332 200h-4v-64a72 72 0 0 0 -144 0v64h-4a20.02 20.02 0 0 0 -20 20v96a20.02 20.02 0 0 0 20 20h152a20.02 20.02 0 0 0 20-20v-96a20.02 20.02 0 0 0 -20-20zm-132-64a56 56 0 0 1 112 0v64h-16v-64a40 40 0 0 0 -80 0v64h-16zm80 0v64h-48v-64a24 24 0 0 1 48 0zm56 180a4 4 0 0 1 -4 4h-152a4 4 0 0 1 -4-4v-96a4 4 0 0 1 4-4h152a4 4 0 0 1 4 4z" fill="url(#a)"/><path d="m248 278.624v17.376a8 8 0 0 0 16 0v-17.376a24 24 0 1 0 -16 0zm8-30.624a8 8 0 1 1 -8 8 8.009 8.009 0 0 1 8-8z" fill="url(#b)"/><path d="m496 352h-480a8 8 0 0 0 -8 8v80a8 8 0 0 0 8 8h480a8 8 0 0 0 8-8v-80a8 8 0 0 0 -8-8zm-8 80h-464v-64h464z" fill="url(#c)"/><path d="m256 424a24 24 0 1 0 -24-24 24.028 24.028 0 0 0 24 24zm0-32a8 8 0 1 1 -8 8 8.009 8.009 0 0 1 8-8z" fill="url(#c)"/><path d="m192 424a24 24 0 1 0 -24-24 24.028 24.028 0 0 0 24 24zm0-32a8 8 0 1 1 -8 8 8.009 8.009 0 0 1 8-8z" fill="url(#e)"/><path d="m128 424a24 24 0 1 0 -24-24 24.028 24.028 0 0 0 24 24zm0-32a8 8 0 1 1 -8 8 8.009 8.009 0 0 1 8-8z" fill="url(#f)"/><path d="m64 424a24 24 0 1 0 -24-24 24.028 24.028 0 0 0 24 24zm0-32a8 8 0 1 1 -8 8 8.009 8.009 0 0 1 8-8z" fill="url(#g)"/><path d="m448 424a24 24 0 1 0 -24-24 24.028 24.028 0 0 0 24 24zm0-32a8 8 0 1 1 -8 8 8.009 8.009 0 0 1 8-8z" fill="url(#h)"/><path d="m384 424a24 24 0 1 0 -24-24 24.028 24.028 0 0 0 24 24zm0-32a8 8 0 1 1 -8 8 8.009 8.009 0 0 1 8-8z" fill="url(#i)"/><path d="m320 424a24 24 0 1 0 -24-24 24.028 24.028 0 0 0 24 24zm0-32a8 8 0 1 1 -8 8 8.009 8.009 0 0 1 8-8z" fill="url(#j)"/></g></svg>