<svg id="Layer_1" enable-background="new 0 0 512 512" height="512" viewBox="0 0 512 512" width="512" xmlns="http://www.w3.org/2000/svg"><g><path d="m325.697 184.703v-24.426h-42.503c-8.269 0-14.98-6.711-14.98-14.979v-42.501h-24.427v42.501c0 8.269-6.701 14.979-14.98 14.979h-42.503v24.426h42.503c8.279 0 14.98 6.711 14.98 14.979v42.501h24.427v-42.501c0-8.269 6.711-14.979 14.98-14.979z"/><path d="m428.5 172.49c0-95.107-77.387-172.49-172.5-172.49s-172.5 77.383-172.5 172.49c0 90.062 69.393 164.228 157.52 171.845v40.298c-13.215 5.79-22.47 18.995-22.47 34.321v55.598c0 20.649 16.8 37.448 37.45 37.448s37.45-16.799 37.45-37.448v-55.598c0-15.326-9.255-28.531-22.47-34.321v-40.298c88.127-7.616 157.52-81.783 157.52-171.845zm-214.674 84.673v-42.501h-42.503c-8.269 0-14.98-6.711-14.98-14.979v-54.384c0-8.279 6.711-14.979 14.98-14.979h42.503v-42.502c0-8.269 6.711-14.979 14.98-14.979h54.387c8.279 0 14.99 6.711 14.99 14.979v42.501h42.493c8.269 0 14.98 6.701 14.98 14.979v54.384c0 8.269-6.711 14.979-14.98 14.979h-42.493v42.501c0 8.269-6.711 14.979-14.99 14.979h-54.387c-8.269.001-14.98-6.71-14.98-14.978z"/></g></svg>