<svg id="Capa_1" enable-background="new 0 0 512 512" height="512" viewBox="0 0 512 512" width="512" xmlns="http://www.w3.org/2000/svg"><g><path d="m185.75 107.906c0-8.47-6.891-15.361-15.361-15.361h-22.316v30.723h22.316c8.47 0 15.361-6.892 15.361-15.362z"/><path d="m54.75 0v512h402.5v-512zm231.75 213.778h101.25v30h-101.25zm-98.75 93.222v-30h200v30zm200 33.222v30h-200v-30zm-263.585 93.923-.159-30 30-.159.159 30zm29.918-93.923v30h-30v-30zm-30-33.222v-30h30v30zm23.99-153.073v45.319h-30v-136.701h52.316c25.012 0 45.361 20.349 45.361 45.361 0 19.238-12.044 35.706-28.983 42.289l24.031 24.031 22.732-22.732 21.213 21.213-22.732 22.732 22.732 22.732-21.213 21.213-22.732-22.732-22.732 22.732-21.213-21.213 22.732-22.732zm39.758 279.88-.159-30 199.997-1.062.159 30z"/></g></svg>