<svg height="448pt" viewBox="-72 0 448 448" width="448pt" xmlns="http://www.w3.org/2000/svg"><path d="m120.007812 32h64v-8c0-13.253906-10.746093-24-24-24h-16c-13.253906 0-24 10.746094-24 24zm0 0"/><path d="m112.007812 64h80c10.132813-.042969 19.148438-6.445312 22.527344-16h-125.054687c3.378906 9.554688 12.394531 15.957031 22.527343 16zm0 0"/><path d="m72.808594 48h-64.960938c-4.332031.003906-7.84374975 3.515625-7.847656 7.847656v384.304688c.00390625 4.332031 3.515625 7.84375 7.847656 7.847656h288.3125c4.332032-.003906 7.84375-3.515625 7.847656-7.847656v-384.304688c-.003906-4.332031-3.515624-7.84375-7.847656-7.847656h-64.953125c-3.828125 18.613281-20.199219 31.976562-39.199219 32h-80c-19-.023438-35.371093-13.386719-39.199218-32zm215.199218 360h-272v-16h272zm0-32h-272v-16h272zm0-32h-272v-16h272zm0-32h-272v-16h272zm0-32h-272v-16h272zm-183.160156-175.960938c3.742188.394532 6.699219 3.34375 7.113282 7.082032l5.382812 48.4375 11.808594-19.679688c1.640625-2.726562 4.746094-4.222656 7.902344-3.804687s5.761718 2.664062 6.640624 5.726562l8.90625 31.136719 15.8125-47.464844c1.023438-3.074218 3.796876-5.230468 7.027344-5.460937 3.230469-.226563 6.28125 1.511719 7.726563 4.414062l13.785156 27.574219h91.054687v16h-96c-3.046874.015625-5.839843-1.699219-7.199218-4.425781l-7.359375-14.726563-17.890625 53.679688c-1.136719 3.304687-4.261719 5.511718-7.757813 5.472656-3.507812-.074219-6.558593-2.425781-7.519531-5.800781l-10.9375-38.269531-14.519531 24.191406c-1.769531 2.941406-5.214844 4.425781-8.566407 3.691406-3.351562-.730469-5.863281-3.523438-6.242187-6.933594l-4-35.789062-20.480469 61.4375c-1.050781 3.152344-3.9375 5.324218-7.253906 5.464844h-.273438c-3.199218 0-6.089843-1.90625-7.351562-4.847657l-21.921875-51.144531h-26.726563v-16h32c3.199219 0 6.089844 1.90625 7.351563 4.847656l15.710937 36.65625 25.34375-76c1.195313-3.5625 4.695313-5.832031 8.433594-5.464844zm0 0"/></svg>