<svg id="Layer_1" enable-background="new 0 0 510 510" height="512" viewBox="0 0 510 510" width="512" xmlns="http://www.w3.org/2000/svg"><g id="XMLID_490_"><path id="XMLID_524_" d="m112.5 0h180v30h-180z"/><path id="XMLID_586_" d="m427.5 480c0 16.568 13.432 30 30 30s30-13.432 30-30v-45h-60z"/><path id="XMLID_589_" d="m457.5 137.666-30 45v222.334h60v-222.334z"/><path id="XMLID_686_" d="m112.5 270h30v30h-30z"/><path id="XMLID_702_" d="m112.5 150h30v30h-30z"/><path id="XMLID_707_" d="m292.5 60h-180v-30h-90v480h360v-480h-90zm-120 390h-90v-90h90zm0-120h-90v-90h90zm0-120h-90v-90h90zm150 210h-120v-30h120zm0-120h-120v-30h120zm0-120h-120v-30h120z"/><path id="XMLID_713_" d="m112.5 390h30v30h-30z"/></g></svg>