<svg height="512pt" viewBox="0 -85 512 512" width="512pt" xmlns="http://www.w3.org/2000/svg"><path d="m329.429688 186.667969h-9.984376c-.257812-.066407-1.238281-.917969-1.238281-2.667969 0-1.769531 1.003907-2.625 1.238281-2.667969h27.199219c8.832031 0 16-7.167969 16-16s-7.144531-16-15.976562-16h-27.203125c-18.324219 0-33.234375 15.554688-33.234375 34.667969s14.910156 34.667969 33.234375 34.667969h9.984375c.214843.042969 1.238281.894531 1.238281 2.664062 0 1.75-.980469 2.605469-1.238281 2.667969h-41.257813l-54.65625-42.667969h6.507813c26.75 0 49.152343-18.109375 56.171875-42.664062h7.828125c8.832031 0 16-7.167969 16-16s-7.210938-16-16.042969-16h-7.828125c-7.019531-24.554688-29.398437-42.667969-56.171875-42.667969h-52.992188c-8.832031 0-16 7.167969-16 16v26.667969h-5.675781c-8.832031 0-16 7.167969-16 16s7.167969 16 16 16h5.675781v26.496093.339844 74.496094c0 8.832031 7.167969 16 16 16 8.832032 0 16-7.167969 16-16v-41.878906l69.824219 54.488281c.703125.554687 1.515625.808594 2.261719 1.234375.640625.34375 1.195312.75 1.875 1.027344 1.835938.679687 3.757812 1.128906 5.699219 1.128906h46.761719c18.324218 0 33.238281-15.550781 33.238281-34.667969 0-19.113281-14.914063-34.664062-33.238281-34.664062zm-126.421876-63.53125c0-.171875.085938-.300781.085938-.46875 0-.171875-.085938-.300781-.085938-.46875v-26.199219h36.992188c14.699219 0 26.667969 11.96875 26.667969 26.667969s-11.96875 26.664062-26.667969 26.664062h-36.992188zm0 0"/><path d="m453.332031 0h-394.664062c-32.363281 0-58.667969 26.304688-58.667969 58.667969v224c0 32.363281 26.304688 58.664062 58.667969 58.664062h394.664062c32.363281 0 58.667969-26.300781 58.667969-58.664062v-224c0-32.363281-26.304688-58.667969-58.667969-58.667969zm26.667969 282.667969c0 14.699219-11.96875 26.664062-26.667969 26.664062h-394.664062c-14.699219 0-26.667969-11.964843-26.667969-26.664062v-224c0-14.699219 11.96875-26.667969 26.667969-26.667969h394.664062c14.699219 0 26.667969 11.96875 26.667969 26.667969zm0 0"/><path d="m133.332031 64h-53.332031c-8.832031 0-16 7.167969-16 16s7.167969 16 16 16h53.332031c8.832031 0 16-7.167969 16-16s-7.167969-16-16-16zm0 0"/><path d="m432 245.332031h-53.332031c-8.832031 0-16 7.167969-16 16s7.167969 16 16 16h53.332031c8.832031 0 16-7.167969 16-16s-7.167969-16-16-16zm0 0"/></svg>