<?xml version="1.0" encoding="iso-8859-1"?>
<!-- Generator: Adobe Illustrator 19.0.0, SVG Export Plug-In . SVG Version: 6.00 Build 0)  -->
<svg version="1.1" id="Capa_1" xmlns="http://www.w3.org/2000/svg" xmlns:xlink="http://www.w3.org/1999/xlink" x="0px" y="0px"
	 viewBox="0 0 507.9 507.9" style="enable-background:new 0 0 507.9 507.9;" xml:space="preserve">
<path style="fill:#40596B;" d="M311.1,188.6c0.5-4.8,0.8-9.7,0.8-14.7c0-5.3-0.3-10.5-0.9-15.6l28.1-19.6l-12-36.7l-34.3,0.8
	c-5.1-8.7-11-16.9-17.8-24.3L286.3,46L255,23.3l-27.3,20.8c-9.1-4.1-18.7-7.3-28.8-9.4L189,2h-38.6l-9.9,32.7
	c-10.3,2.2-20.2,5.5-29.5,9.8L83.4,23.9L52.3,46.7l11.5,32.4c-6.7,7.5-12.6,15.6-17.7,24.4l-34.3-0.6L0,139.8l28.2,19.4
	c-0.5,4.8-0.8,9.7-0.8,14.7c0,5.3,0.3,10.5,0.9,15.6L0.2,209.1l12,36.7l34.3-0.8c5.1,8.7,11,16.9,17.8,24.3L53,301.8l31.3,22.7
	l27.3-20.8c9.1,4.1,18.7,7.3,28.8,9.4l9.9,32.7H189l9.9-32.7c10.3-2.2,20.2-5.5,29.5-9.8l27.4,20.6l31.1-22.9l-11.5-32.4
	c6.7-7.5,12.6-15.6,17.7-24.4l34.3,0.6l11.8-36.8L311.1,188.6z M169.6,270.6c-53.4,0-96.7-43.3-96.7-96.7s43.3-96.7,96.7-96.7
	s96.7,43.3,96.7,96.7C266.4,227.3,223.1,270.6,169.6,270.6z"/>
<circle style="fill:#FFD15C;" cx="169.6" cy="173.9" r="53.6"/>
<path style="fill:#40596B;" d="M487.1,389c0.4-3.6,0.6-7.2,0.6-10.9c0-3.9-0.2-7.8-0.7-11.6l20.8-14.6l-8.9-27.3l-25.5,0.6
	c-3.8-6.5-8.2-12.5-13.2-18.1l8.4-24.1l-23.2-16.8L425,281.7c-6.8-3-13.9-5.4-21.4-7l-7.4-24.3h-28.7l-7.4,24.3
	c-7.7,1.6-15,4.1-21.9,7.3l-20.4-15.3l-23.1,17l8.5,24.1c-5,5.6-9.4,11.6-13.1,18.1l-25.5-0.4l-8.8,27.3l20.9,14.4
	c-0.4,3.6-0.6,7.2-0.6,10.9c0,3.9,0.2,7.8,0.7,11.6L256,404.3l8.9,27.3l25.5-0.6c3.8,6.5,8.2,12.5,13.2,18.1l-8.4,24.1l23.2,16.8
	l20.3-15.4c6.8,3,13.9,5.4,21.4,7l7.4,24.3h28.7l7.4-24.3c7.7-1.6,15-4.1,21.9-7.3l20.4,15.3l23.1-17l-8.5-24.1
	c5-5.6,9.4-11.6,13.1-18.1l25.5,0.4l8.8-27.3L487.1,389z M382,449.9c-39.7,0-71.8-32.2-71.8-71.8c0-39.7,32.2-71.8,71.8-71.8
	s71.8,32.2,71.8,71.8C453.8,417.8,421.7,449.9,382,449.9z"/>
<circle style="fill:#FF7058;" cx="382" cy="378.1" r="39.8"/>
<g>
</g>
<g>
</g>
<g>
</g>
<g>
</g>
<g>
</g>
<g>
</g>
<g>
</g>
<g>
</g>
<g>
</g>
<g>
</g>
<g>
</g>
<g>
</g>
<g>
</g>
<g>
</g>
<g>
</g>
</svg>
