<svg id="Glyph" enable-background="new 0 0 64 64" height="512" viewBox="0 0 64 64" width="512" xmlns="http://www.w3.org/2000/svg"><path d="m2 47h8v14h-8z"/><path d="m36.5 43c3.033 0 5.5 2.468 5.5 5.5 0 .52-.072 1.023-.208 1.5h2.769l11.972-5.525c.671-.311 1.418-.475 2.16-.475h.152c.398 0 .782.055 1.155.141v-27.141c0-2.209-1.791-4-4-4h-6v-6c0-2.209-1.791-4-4-4h-12c-2.209 0-4 1.791-4 4v6h-6c-2.209 0-4 1.791-4 4v28.171l2.171-2.171zm-2.5-36h12v6h-12zm6 12c6.075 0 11 4.925 11 11s-4.925 11-11 11-11-4.925-11-11 4.925-11 11-11z"/><path d="m38 36h4v-4h4v-4h-4v-4h-4v4h-4v4h4z"/><path d="m58.845 46h-.152c-.457 0-.908.099-1.322.29l-12.371 5.71h-8.5c1.933 0 3.5-1.567 3.5-3.5s-1.567-3.5-3.5-3.5h-13.5l-4 4h-7v11h34l14.392-8.095c.993-.559 1.608-1.61 1.608-2.75 0-1.743-1.412-3.155-3.155-3.155zm-22.845 8h-7c-.552 0-1-.448-1-1s.448-1 1-1h7c.552 0 1 .448 1 1s-.448 1-1 1z"/></svg>