<svg height="512" viewBox="0 0 64 64" width="512" xmlns="http://www.w3.org/2000/svg"><g id="Samples"><path d="m25 28h14v-14h-14zm2-8h4v-4h2v4h4v2h-4v4h-2v-4h-4z"/><path d="m25 53a7 7 0 0 0 14 0v-23h-14zm6.293-16.707a1.029 1.029 0 0 1 1.414 0c.216.216 5.293 5.343 5.293 9.707a6 6 0 0 1 -12 0c0-4.364 5.077-9.491 5.293-9.707z"/><path d="m12 30h-2v10a1 1 0 0 0 1 1h8v-2h-7z"/><path d="m21 39h2v2h-2z"/><path d="m18 18h-14v10h14zm-12 2h2v2h-2zm10 6h-10v-2h10zm0-4h-6v-2h6z"/><path d="m32 50a4 4 0 0 0 4-4c0-2.5-2.46-5.8-4-7.536-1.54 1.736-4 5.036-4 7.536a4 4 0 0 0 4 4z"/><path d="m42 4h-20a3.009 3.009 0 0 0 -3 3v2a3.009 3.009 0 0 0 3 3h20a3.009 3.009 0 0 0 3-3v-2a3.009 3.009 0 0 0 -3-3zm-3 5h-2v-2h2zm4 0h-2v-2h2z"/><path d="m59.5 7.62a1 1 0 0 0 -1.37.36l-1.5 2.6 1.74 1 1.5-2.6a1 1 0 0 0 -.37-1.36z"/><path d="m59.1 14.31-5.2-3a1 1 0 0 0 -1.36.37.963.963 0 0 0 -.1.76.93.93 0 0 0 .46.6l5.2 3a1.01 1.01 0 0 0 .76.11.978.978 0 0 0 .6-.47 1 1 0 0 0 -.36-1.37z"/><path d="m49.85 20.33-.6 2.94a.789.789 0 0 1 -.12.3l-3 5.2a1 1 0 0 0 .37 1.36 1.007 1.007 0 0 0 1.37-.36l3-5.2a1.156 1.156 0 0 1 .2-.25l2.24-1.99 2.92-5.05-3.46-2z"/></g></svg>